HIERARCHY
ROOT Hips
{
	OFFSET 0.000000 71.427986 0.000000
	CHANNELS 6 Xposition Yposition Zposition Xrotation Yrotation Zrotation
	JOINT Pelvis
	{
		OFFSET 0.000000 0.000000 0.000000
		CHANNELS 3 Xrotation Yrotation Zrotation
		JOINT LeftUpLeg
		{
			OFFSET 6.797100 -2.508499 -1.318700
			CHANNELS 3 Xrotation Yrotation Zrotation
			JOINT LeftLeg
			{
				OFFSET 0.069008 -29.241863 0.690200
				CHANNELS 3 Xrotation Yrotation Zrotation
				JOINT LeftFoot
				{
					OFFSET -0.069008 -29.568123 -0.266800
					CHANNELS 3 Xrotation Yrotation Zrotation
					JOINT LeftToeBase
					{
						OFFSET 3.145500 -8.631000 16.059900
						CHANNELS 3 Xrotation Yrotation Zrotation
						End Site
						{
							OFFSET 0.000000 18.501587 0.000000
						}
					}
				}
			}
			JOINT Left_ShortSleeve
			{
				OFFSET 0.265923 -10.480953 1.153800
				CHANNELS 3 Xrotation Yrotation Zrotation
				End Site
				{
					OFFSET 1.725763 19.823879 0.000000
				}
			}
		}
		JOINT RightUpLeg
		{
			OFFSET -6.797100 -2.508499 -1.318700
			CHANNELS 3 Xrotation Yrotation Zrotation
			JOINT RightLeg
			{
				OFFSET -0.082453 -29.241932 0.688000
				CHANNELS 3 Xrotation Yrotation Zrotation
				JOINT RightFoot
				{
					OFFSET 0.082453 -29.568058 -0.264600
					CHANNELS 3 Xrotation Yrotation Zrotation
					JOINT RightToeBase
					{
						OFFSET -3.115300 -8.682800 16.113400
						CHANNELS 3 Xrotation Yrotation Zrotation
						End Site
						{
							OFFSET 0.000000 18.567114 0.000000
						}
					}
				}
			}
			JOINT Right_ShortSleeve
			{
				OFFSET -0.265923 -10.480953 1.153800
				CHANNELS 3 Xrotation Yrotation Zrotation
				End Site
				{
					OFFSET -1.725766 19.823910 0.000000
				}
			}
		}
	}
	JOINT Spine
	{
		OFFSET 0.000000 13.368103 0.470500
		CHANNELS 3 Xrotation Yrotation Zrotation
		JOINT Spine1
		{
			OFFSET 0.147000 13.837402 0.538800
			CHANNELS 3 Xrotation Yrotation Zrotation
			JOINT Spine2
			{
				OFFSET 0.168000 16.242897 -1.435500
				CHANNELS 3 Xrotation Yrotation Zrotation
				JOINT Neck
				{
					OFFSET 0.217200 18.631500 -1.679100
					CHANNELS 3 Xrotation Yrotation Zrotation
					JOINT Head
					{
						OFFSET 0.000000 6.599396 1.385900
						CHANNELS 3 Xrotation Yrotation Zrotation
						JOINT Hat
						{
							OFFSET -0.532200 27.220596 -10.096100
							CHANNELS 3 Xrotation Yrotation Zrotation
							End Site
							{
								OFFSET 0.000000 22.029861 0.000000
							}
						}
						JOINT HairD
						{
							OFFSET -10.777400 17.437393 -1.325900
							CHANNELS 3 Xrotation Yrotation Zrotation
							JOINT HairD1
							{
								OFFSET -3.290299 -11.051193 1.062200
								CHANNELS 3 Xrotation Yrotation Zrotation
								End Site
								{
									OFFSET 0.000000 11.579437 0.000000
								}
							}
						}
						JOINT HairB
						{
							OFFSET -10.777400 17.437393 1.467900
							CHANNELS 3 Xrotation Yrotation Zrotation
							JOINT HairB1
							{
								OFFSET -1.561200 -12.956299 3.590200
								CHANNELS 3 Xrotation Yrotation Zrotation
								End Site
								{
									OFFSET 0.000000 13.534866 0.000000
								}
							}
						}
						JOINT HairA
						{
							OFFSET 9.713100 17.437393 1.467900
							CHANNELS 3 Xrotation Yrotation Zrotation
							JOINT HairA1
							{
								OFFSET 1.561200 -12.956299 3.590200
								CHANNELS 3 Xrotation Yrotation Zrotation
								End Site
								{
									OFFSET 0.000000 13.534866 0.000000
								}
							}
						}
						JOINT HairC
						{
							OFFSET 9.713100 17.437393 -1.325900
							CHANNELS 3 Xrotation Yrotation Zrotation
							JOINT HairC1
							{
								OFFSET 3.290300 -11.051193 1.062200
								CHANNELS 3 Xrotation Yrotation Zrotation
								End Site
								{
									OFFSET 0.000000 11.579437 0.000000
								}
							}
						}
					}
				}
				JOINT LeftShoulder
				{
					OFFSET 5.101800 15.108002 -2.763700
					CHANNELS 3 Xrotation Yrotation Zrotation
					JOINT LeftArm
					{
						OFFSET 9.825497 2.506317 -1.597400
						CHANNELS 3 Xrotation Yrotation Zrotation
						JOINT LeftForeArm
						{
							OFFSET 21.966244 0.000000 0.000000
							CHANNELS 3 Xrotation Yrotation Zrotation
							JOINT LeftHand
							{
								OFFSET 33.879036 0.000000 0.000000
								CHANNELS 3 Xrotation Yrotation Zrotation
								JOINT LeftHandThumb1
								{
									OFFSET 6.715286 -2.359680 3.363841
									CHANNELS 3 Xrotation Yrotation Zrotation
									JOINT LeftHandThumb2
									{
										OFFSET 2.507072 -1.447464 1.447461
										CHANNELS 3 Xrotation Yrotation Zrotation
										JOINT LeftHandThumb3
										{
											OFFSET 2.898338 -1.673355 1.673357
											CHANNELS 3 Xrotation Yrotation Zrotation
											End Site
											{
												OFFSET -0.295959 3.727692 -0.131651
											}
										}
									}
								}
								JOINT LeftHandIndex1
								{
									OFFSET 14.190811 -0.254547 3.840278
									CHANNELS 3 Xrotation Yrotation Zrotation
									JOINT LeftHandIndex2
									{
										OFFSET 3.551727 0.000000 -0.000000
										CHANNELS 3 Xrotation Yrotation Zrotation
										JOINT LeftHandIndex3
										{
											OFFSET 2.894196 0.000000 0.000000
											CHANNELS 3 Xrotation Yrotation Zrotation
											End Site
											{
												OFFSET -1.000603 2.690872 0.366626
											}
										}
									}
								}
								JOINT LeftHandMiddle1
								{
									OFFSET 13.776489 0.000000 0.000000
									CHANNELS 3 Xrotation Yrotation Zrotation
									JOINT LeftHandMiddle2
									{
										OFFSET 3.438232 0.000000 0.000000
										CHANNELS 3 Xrotation Yrotation Zrotation
										JOINT LeftHandMiddle3
										{
											OFFSET 3.691551 0.000000 0.000000
											CHANNELS 3 Xrotation Yrotation Zrotation
											End Site
											{
												OFFSET -1.082298 3.499527 0.457670
											}
										}
									}
								}
								JOINT LeftHandRing1
								{
									OFFSET 13.966164 -0.268127 -3.067488
									CHANNELS 3 Xrotation Yrotation Zrotation
									JOINT LeftHandRing2
									{
										OFFSET 3.162567 0.000000 0.000000
										CHANNELS 3 Xrotation Yrotation Zrotation
										JOINT LeftHandRing3
										{
											OFFSET 3.324348 0.000000 0.000000
											CHANNELS 3 Xrotation Yrotation Zrotation
											End Site
											{
												OFFSET -0.861900 3.184998 0.405154
											}
										}
									}
								}
								JOINT LeftHandPinky1
								{
									OFFSET 13.131393 -0.168503 -5.746925
									CHANNELS 3 Xrotation Yrotation Zrotation
									JOINT LeftHandPinky2
									{
										OFFSET 2.849182 0.000000 0.000000
										CHANNELS 3 Xrotation Yrotation Zrotation
										JOINT LeftHandPinky3
										{
											OFFSET 2.805038 0.000000 0.000000
											CHANNELS 3 Xrotation Yrotation Zrotation
											End Site
											{
												OFFSET -0.882500 2.642609 0.325652
											}
										}
									}
								}
							}
							JOINT Left_Sleeve
							{
								OFFSET 6.592125 -0.646545 0.805568
								CHANNELS 3 Xrotation Yrotation Zrotation
								End Site
								{
									OFFSET -0.000179 20.275787 -0.000000
								}
							}
						}
					}
				}
				JOINT RightShoulder
				{
					OFFSET -5.731700 15.108002 -2.763700
					CHANNELS 3 Xrotation Yrotation Zrotation
					JOINT RightArm
					{
						OFFSET -9.825497 2.506317 -1.597400
						CHANNELS 3 Xrotation Yrotation Zrotation
						JOINT RightForeArm
						{
							OFFSET -21.966242 0.000000 0.000000
							CHANNELS 3 Xrotation Yrotation Zrotation
							JOINT RightHand
							{
								OFFSET -33.879032 0.000000 0.000000
								CHANNELS 3 Xrotation Yrotation Zrotation
								JOINT RightHandThumb1
								{
									OFFSET -6.715286 -2.359680 3.363841
									CHANNELS 3 Xrotation Yrotation Zrotation
									JOINT RightHandThumb2
									{
										OFFSET -2.507072 -1.447464 1.447461
										CHANNELS 3 Xrotation Yrotation Zrotation
										JOINT RightHandThumb3
										{
											OFFSET -2.898338 -1.673355 1.673357
											CHANNELS 3 Xrotation Yrotation Zrotation
											End Site
											{
												OFFSET 0.295959 3.727692 -0.131651
											}
										}
									}
								}
								JOINT RightHandIndex1
								{
									OFFSET -14.190811 -0.254547 3.840278
									CHANNELS 3 Xrotation Yrotation Zrotation
									JOINT RightHandIndex2
									{
										OFFSET -3.551727 0.000000 -0.000000
										CHANNELS 3 Xrotation Yrotation Zrotation
										JOINT RightHandIndex3
										{
											OFFSET -2.894196 0.000000 0.000000
											CHANNELS 3 Xrotation Yrotation Zrotation
											End Site
											{
												OFFSET 1.000603 2.690872 0.366626
											}
										}
									}
								}
								JOINT RightHandMiddle1
								{
									OFFSET -13.776489 0.000000 0.000000
									CHANNELS 3 Xrotation Yrotation Zrotation
									JOINT RightHandMiddle2
									{
										OFFSET -3.438232 0.000000 0.000000
										CHANNELS 3 Xrotation Yrotation Zrotation
										JOINT RightHandMiddle3
										{
											OFFSET -3.691551 0.000000 0.000000
											CHANNELS 3 Xrotation Yrotation Zrotation
											End Site
											{
												OFFSET 1.082298 3.499527 0.457670
											}
										}
									}
								}
								JOINT RightHandRing1
								{
									OFFSET -13.966164 -0.268127 -3.067488
									CHANNELS 3 Xrotation Yrotation Zrotation
									JOINT RightHandRing2
									{
										OFFSET -3.162567 0.000000 0.000000
										CHANNELS 3 Xrotation Yrotation Zrotation
										JOINT RightHandRing3
										{
											OFFSET -3.324348 0.000000 0.000000
											CHANNELS 3 Xrotation Yrotation Zrotation
											End Site
											{
												OFFSET 0.861900 3.184998 0.405154
											}
										}
									}
								}
								JOINT RightHandPinky1
								{
									OFFSET -13.131393 -0.168503 -5.746925
									CHANNELS 3 Xrotation Yrotation Zrotation
									JOINT RightHandPinky2
									{
										OFFSET -2.849182 0.000000 0.000000
										CHANNELS 3 Xrotation Yrotation Zrotation
										JOINT RightHandPinky3
										{
											OFFSET -2.805038 0.000000 0.000000
											CHANNELS 3 Xrotation Yrotation Zrotation
											End Site
											{
												OFFSET 0.882500 2.642609 0.325652
											}
										}
									}
								}
							}
							JOINT Right_Sleeve
							{
								OFFSET -6.592125 -0.646545 0.805568
								CHANNELS 3 Xrotation Yrotation Zrotation
								End Site
								{
									OFFSET 0.000179 20.275787 -0.000000
								}
							}
						}
					}
				}
				JOINT Bind_Right_JacketString
				{
					OFFSET -3.534800 11.969597 7.200700
					CHANNELS 3 Xrotation Yrotation Zrotation
					JOINT Bind_Right_JacketString1
					{
						OFFSET -0.319900 -6.102600 2.794100
						CHANNELS 3 Xrotation Yrotation Zrotation
						End Site
						{
							OFFSET 0.000000 6.719452 0.000000
						}
					}
				}
				JOINT Bind_Left_JacketString
				{
					OFFSET 2.904800 11.969597 7.200700
					CHANNELS 3 Xrotation Yrotation Zrotation
					JOINT Bind_Left_JacketString1
					{
						OFFSET 0.364800 -5.904503 3.186800
						CHANNELS 3 Xrotation Yrotation Zrotation
						End Site
						{
							OFFSET 0.000000 6.719513 0.000000
						}
					}
				}
				JOINT HairE
				{
					OFFSET 5.915200 17.612701 -11.592200
					CHANNELS 3 Xrotation Yrotation Zrotation
					JOINT HairE1
					{
						OFFSET 0.289200 -7.171898 -1.284500
						CHANNELS 3 Xrotation Yrotation Zrotation
						End Site
						{
							OFFSET 0.000000 7.291756 0.000000
						}
					}
				}
				JOINT HairF
				{
					OFFSET -0.864800 17.612701 -11.592200
					CHANNELS 3 Xrotation Yrotation Zrotation
					JOINT HairF1
					{
						OFFSET 0.000000 -14.087097 -2.127501
						CHANNELS 3 Xrotation Yrotation Zrotation
						End Site
						{
							OFFSET 0.000000 14.246841 0.000000
						}
					}
				}
				JOINT HairG
				{
					OFFSET -8.087700 17.612701 -11.592200
					CHANNELS 3 Xrotation Yrotation Zrotation
					JOINT HairG1
					{
						OFFSET -0.293600 -6.081398 -0.910100
						CHANNELS 3 Xrotation Yrotation Zrotation
						End Site
						{
							OFFSET 0.000000 6.156120 0.000000
						}
					}
				}
			}
		}
	}
	JOINT Pouch
	{
		OFFSET 0.000000 4.394501 10.847300
		CHANNELS 3 Xrotation Yrotation Zrotation
		End Site
		{
			OFFSET 0.000000 21.880577 0.000000
		}
	}
	JOINT Bag
	{
		OFFSET -13.229000 4.813004 -0.593300
		CHANNELS 3 Xrotation Yrotation Zrotation
		End Site
		{
			OFFSET 0.000000 21.880577 0.000000
		}
	}
	JOINT OccupyGuyFacialAnim_Joint
	{
		OFFSET 1.000000 -70.206398 -1.655000
		CHANNELS 3 Xrotation Yrotation Zrotation
		End Site
		{
			OFFSET 0.000000 21.880577 0.000000
		}
	}
}
MOTION
Frames: 5
Frame Time: 0.016667
-0.989482 66.542549 0.929186 -6.079183 -42.950787 -4.012110 -0.000000 -0.000000 -0.000000 -24.712277 6.251113 13.968856 35.029199 -14.597489 -0.214955 -7.796957 0.938402 -7.429422 -0.000000 0.000004 0.000000 0.000001 -0.000002 -0.000000 -2.869786 -14.307067 -14.527843 34.186610 -8.756252 -0.403641 -23.634558 -4.503129 16.719985 0.000000 -0.000000 -0.000000 -0.000000 0.000001 -0.000000 5.833162 4.561880 -1.234943 11.836539 9.038708 -3.084348 11.836539 9.038689 -3.084344 -4.303008 -1.272908 0.206301 -6.271934 20.437796 -0.377162 -0.000000 -0.000000 0.000000 -0.000000 -0.000000 0.000000 -0.000000 -0.000000 -0.000000 -0.000000 -0.000000 -0.000000 -0.000000 -0.000000 0.000000 -0.000000 -0.000000 -0.000000 -0.000000 -0.000000 0.000000 -0.000000 -0.000000 0.000000 -0.000000 -0.000000 0.000000 1.392503 -0.696020 -7.877853 -14.260095 2.394337 -63.277092 9.865024 -47.524907 5.927877 16.172855 0.915153 18.795438 9.143015 4.783935 -5.500127 -0.301070 0.107999 0.795307 -0.000001 0.000001 -0.000004 -0.902017 -6.980963 -3.808307 0.026641 0.799121 -16.418001 0.000001 -0.000000 -0.000000 1.947872 9.683102 -14.539668 -0.466570 -1.573705 -21.879811 0.000002 -0.000002 0.000002 2.605918 14.896822 -31.345193 -0.561676 -2.697431 -32.012076 0.000000 0.000003 -0.000000 4.170635 18.495037 -34.987265 -0.700306 -5.780877 -39.372499 0.000004 -0.000004 0.000001 0.000003 0.000001 -0.000000 1.410972 9.461533 9.792729 1.220048 -24.270705 60.532914 -6.660713 41.858435 8.043850 6.225228 12.322314 11.673331 -8.895709 -4.903269 -0.383678 7.904868 -19.192213 -2.856767 0.000003 -0.000003 0.000003 -1.085545 -1.215409 4.525437 0.128075 -1.119900 16.942438 0.000000 0.000002 -0.000003 -0.665778 -2.894585 12.730867 -0.670880 1.818956 30.578286 -0.000001 0.000001 -0.000001 2.420452 -7.405546 21.762830 -0.974636 3.771123 37.430379 -0.000000 -0.000000 0.000001 3.480947 -10.055024 24.322560 -1.465926 7.881255 41.092091 -0.000001 0.000002 -0.000001 0.000001 0.000001 0.000000 0.000002 0.000001 -0.000000 0.000002 0.000001 -0.000000 0.000002 0.000001 -0.000000 0.000002 0.000001 -0.000000 0.000002 0.000001 -0.000000 0.000002 0.000001 0.000000 0.000002 0.000001 -0.000000 0.000002 0.000001 -0.000000 0.000002 0.000001 -0.000000 0.000002 0.000001 0.000000 -0.000000 -0.000000 -0.000000 -0.000000 -0.000000 -0.000000 -0.000000 -0.000000 -0.000000 
-0.813964 66.591965 0.745658 -6.173345 -43.082853 -4.091025 -0.000000 0.000002 0.000000 -24.596367 6.304782 14.027406 34.448332 -14.296414 -0.372835 -7.301848 0.672569 -7.462542 -0.000000 -0.000000 0.000000 0.000001 -0.000001 -0.000001 -3.274436 -14.530049 -14.639208 34.477115 -8.178048 -0.416031 -23.532363 -4.432130 16.432440 -0.000000 0.000000 -0.000000 -0.000000 0.000003 -0.000000 5.864798 4.547391 -1.231950 11.898884 9.008186 -3.077234 11.898874 9.008205 -3.077236 -4.429665 -1.267869 0.288868 -6.490510 20.388205 -0.421786 -0.000000 -0.000000 -0.000000 -0.000000 -0.000000 -0.000000 -0.000000 -0.000000 -0.000000 -0.000000 -0.000000 -0.000000 -0.000000 0.000000 0.000000 -0.000000 -0.000000 -0.000000 -0.000000 0.000000 0.000000 -0.000000 -0.000000 -0.000000 -0.000000 -0.000000 -0.000000 1.401862 -0.822651 -7.787732 -14.062057 2.347396 -63.133542 10.053575 -47.618146 5.985784 16.200686 0.994734 19.382993 9.158607 4.725384 -5.454720 0.188501 0.417730 0.798306 0.000001 -0.000001 0.000001 -0.958172 -6.941312 -4.413347 0.024142 0.791031 -16.487795 0.000003 -0.000001 -0.000000 2.036506 9.671561 -15.139983 -0.465817 -1.571748 -21.854486 -0.000002 -0.000001 -0.000001 2.574100 14.834110 -31.340159 -0.563076 -2.699676 -32.043201 -0.000000 0.000001 -0.000001 4.238381 18.498965 -35.334112 -0.697810 -5.785133 -39.451326 0.000002 -0.000001 0.000005 -0.000000 -0.000002 0.000002 1.466863 9.326476 9.780283 0.638252 -23.863790 60.130731 -6.816787 41.825415 8.076366 6.034888 12.620474 11.250431 -8.972878 -4.851958 -0.420213 8.125502 -18.985143 -2.690089 -0.000000 0.000000 -0.000000 -1.120329 -1.139230 4.966058 0.131794 -1.131919 16.816865 0.000001 0.000002 0.000001 -0.659743 -2.887933 12.813733 -0.667703 1.813545 30.476861 0.000001 -0.000002 0.000001 2.379473 -7.285900 22.042065 -0.967368 3.761642 37.319361 -0.000000 -0.000001 -0.000006 3.532379 -10.190434 24.333013 -1.452834 7.866215 40.832018 -0.000001 -0.000001 -0.000005 -0.000001 0.000001 -0.000001 -0.000000 0.000001 -0.000001 -0.000000 -0.000001 0.000000 -0.000000 0.000001 -0.000000 -0.000000 0.000001 -0.000000 -0.000000 0.000001 -0.000001 -0.000000 -0.000001 0.000001 -0.000000 0.000001 -0.000000 -0.000000 0.000001 -0.000000 -0.000000 0.000001 -0.000001 -0.000000 -0.000001 0.000001 -0.000000 0.000002 0.000000 -0.000000 0.000002 0.000000 -0.000000 0.000002 0.000000 
-0.625364 66.666367 0.490088 -6.185718 -43.234896 -4.165290 -0.000000 -0.000000 0.000000 -24.483879 6.383403 14.172594 33.602871 -13.874517 -0.568471 -6.615141 0.284535 -7.532567 -0.000000 0.000002 0.000000 0.000005 -0.000000 -0.000000 -3.821131 -14.832393 -14.644060 34.772835 -7.545198 -0.492178 -23.348298 -4.309155 16.094193 -0.000000 0.000002 -0.000000 -0.000001 -0.000002 -0.000000 5.906974 4.527214 -1.221032 11.981816 8.966215 -3.057287 11.981820 8.966204 -3.057285 -4.631369 -1.213640 0.393661 -6.738245 20.342059 -0.503911 -0.000001 0.000000 -0.000000 -0.000001 0.000000 -0.000000 -0.000001 0.000000 -0.000000 -0.000001 0.000000 -0.000001 -0.000001 0.000000 -0.000000 -0.000001 0.000000 -0.000001 -0.000001 0.000000 -0.000000 -0.000001 0.000000 -0.000000 -0.000001 0.000000 -0.000000 1.424251 -0.917263 -7.638835 -13.828632 2.336942 -63.082958 10.239111 -47.620786 6.058590 16.425398 0.929094 20.144089 9.173015 4.617641 -5.382495 1.007824 0.982150 0.784565 0.000001 -0.000001 0.000003 -1.080094 -6.902733 -5.464039 0.021389 0.782109 -16.564493 -0.000003 -0.000002 0.000001 2.179168 9.621913 -16.188798 -0.471076 -1.570379 -21.850190 -0.000000 0.000000 0.000001 2.576047 14.731909 -31.569742 -0.560847 -2.704467 -32.093840 0.000000 0.000002 -0.000001 4.353762 18.523990 -35.859900 -0.692987 -5.791251 -39.531106 -0.000002 -0.000001 -0.000001 -0.000001 -0.000000 -0.000002 1.548608 9.197633 9.728924 -0.123829 -23.268387 59.659947 -6.921691 41.713413 8.099056 5.976508 12.974410 10.588742 -9.096285 -4.769444 -0.477923 8.264835 -18.775751 -2.508972 -0.000001 -0.000001 0.000000 -1.151621 -1.039404 5.376199 0.137452 -1.150273 16.624540 -0.000000 0.000000 -0.000001 -0.653064 -2.883171 12.864818 -0.661495 1.799801 30.309145 0.000000 -0.000000 0.000001 2.335062 -7.175460 22.316854 -0.956278 3.749336 37.136647 0.000001 -0.000003 0.000000 3.606868 -10.405702 24.310055 -1.436092 7.850933 40.538067 -0.000000 0.000001 -0.000001 0.000001 0.000000 -0.000000 0.000001 -0.000001 0.000001 0.000001 -0.000001 0.000000 0.000001 -0.000001 0.000001 0.000001 -0.000001 0.000001 0.000001 -0.000001 0.000001 0.000001 -0.000001 0.000001 0.000001 -0.000001 0.000001 0.000001 -0.000001 0.000001 0.000001 -0.000001 0.000001 0.000001 -0.000001 0.000001 -0.000000 -0.000000 0.000000 -0.000000 -0.000000 0.000000 -0.000000 -0.000000 0.000000 
-0.410751 66.816231 0.062899 -6.073188 -43.422364 -4.260882 -0.000000 -0.000001 -0.000000 -24.257803 6.546355 14.540219 31.988423 -13.174990 -0.856749 -5.423368 -0.439558 -7.758881 0.000000 -0.000002 0.000000 -0.000000 0.000000 0.000002 -4.531378 -15.404983 -14.373986 34.866251 -6.726719 -0.760737 -22.964302 -4.108134 15.572246 0.000000 0.000000 -0.000000 0.000001 -0.000000 -0.000002 5.985850 4.490225 -1.185394 12.136443 8.890872 -2.994821 12.136444 8.890856 -2.994815 -4.947636 -1.039903 0.521740 -7.184483 20.285949 -0.667903 -0.000000 0.000000 -0.000000 -0.000000 0.000000 -0.000000 -0.000000 0.000000 -0.000000 -0.000000 0.000000 -0.000000 -0.000000 -0.000000 -0.000000 -0.000000 0.000000 -0.000000 -0.000000 -0.000000 -0.000000 -0.000000 0.000000 -0.000000 -0.000000 0.000000 -0.000000 1.480748 -0.968465 -7.357330 -13.473022 2.397450 -63.225237 10.444974 -47.365163 6.152021 17.081997 0.460965 21.365431 9.194223 4.397473 -5.240273 2.808059 2.235756 0.718583 -0.000000 -0.000001 0.000000 -1.409023 -6.869441 -7.861246 0.012211 0.773629 -16.652703 -0.000000 -0.000002 0.000001 2.493111 9.474523 -18.639088 -0.485907 -1.571230 -21.897074 0.000002 -0.000000 -0.000001 2.669351 14.511095 -32.472475 -0.555807 -2.714342 -32.197198 -0.000000 0.000001 -0.000002 4.607239 18.590201 -36.929405 -0.682540 -5.802171 -39.617443 -0.000001 0.000000 0.000001 0.000003 0.000001 -0.000001 1.699784 9.063901 9.572951 -1.390758 -22.194249 59.019405 -6.909173 41.325359 8.080206 6.289859 13.518283 9.316069 -9.337843 -4.606797 -0.590499 8.194691 -18.557875 -2.290284 -0.000001 -0.000000 0.000003 -1.167071 -0.886028 5.671147 0.148032 -1.184220 16.268843 -0.000001 0.000000 -0.000001 -0.639247 -2.885176 12.772642 -0.654323 1.769149 29.971430 -0.000000 -0.000000 -0.000001 2.289831 -7.091425 22.555986 -0.934100 3.724403 36.768684 0.000000 -0.000002 -0.000003 3.751377 -10.858926 24.169885 -1.411334 7.835644 40.176354 -0.000000 -0.000003 -0.000000 -0.000001 0.000001 0.000001 -0.000000 0.000001 -0.000001 0.000000 -0.000000 0.000001 -0.000000 0.000001 0.000000 -0.000000 0.000001 0.000000 -0.000000 0.000001 -0.000001 0.000000 -0.000000 0.000001 -0.000000 0.000001 0.000000 -0.000000 0.000001 0.000000 -0.000000 0.000001 -0.000001 0.000000 -0.000000 0.000001 -0.000000 -0.000001 -0.000000 -0.000000 -0.000001 -0.000000 -0.000000 -0.000001 -0.000000 
-0.157685 66.989952 -0.521758 -5.636445 -43.684073 -4.271630 0.000000 -0.000000 -0.000000 -24.194828 6.733956 15.078413 29.891370 -12.196204 -1.141599 -3.832234 -1.364019 -8.087221 -0.000000 0.000000 -0.000000 0.000001 -0.000002 -0.000002 -5.643773 -16.091929 -13.867144 35.006820 -5.860645 -1.081231 -22.469453 -3.815372 14.887714 -0.000000 -0.000000 -0.000000 -0.000000 0.000002 -0.000001 6.064899 4.443113 -1.141803 12.291219 8.793637 -2.923257 12.291221 8.793650 -2.923259 -5.600551 -0.771443 0.762558 -7.478243 20.278618 -0.915326 -0.000000 0.000000 -0.000000 -0.000000 0.000000 -0.000000 -0.000000 0.000000 -0.000000 -0.000000 0.000000 -0.000000 -0.000000 0.000000 -0.000000 -0.000000 0.000000 -0.000000 -0.000000 0.000000 -0.000000 -0.000000 0.000000 -0.000000 -0.000000 0.000000 -0.000000 1.559703 -0.882001 -6.930222 -13.113727 2.571176 -63.632283 10.587734 -46.992139 6.307625 18.251048 -0.217694 22.883073 9.221858 4.098852 -5.047219 4.936153 3.790664 0.608176 0.000000 0.000001 -0.000001 -1.780751 -6.833667 -10.684279 -0.000500 0.762975 -16.766438 0.000002 0.000003 0.000002 2.824420 9.261562 -21.423030 -0.507539 -1.574426 -21.988573 -0.000001 0.000000 -0.000001 2.812544 14.253213 -33.670879 -0.548545 -2.727400 -32.332015 0.000002 0.000001 -0.000001 4.915113 18.723680 -38.162213 -0.667841 -5.816489 -39.697411 -0.000002 -0.000001 -0.000001 0.000003 -0.000000 -0.000001 1.892360 8.982957 9.354383 -2.904481 -20.756047 58.240183 -6.773789 40.936882 8.076122 6.780251 14.067172 7.590545 -9.665205 -4.384781 -0.740912 7.973746 -18.341674 -2.042646 0.000000 -0.000000 0.000003 -1.190308 -0.674811 5.982590 0.162937 -1.231646 15.771825 -0.000001 0.000000 0.000000 -0.641233 -2.859160 12.741615 -0.645296 1.726916 29.508938 -0.000001 -0.000001 -0.000001 2.242611 -7.012300 22.837813 -0.904825 3.692151 36.270429 0.000001 0.000000 0.000003 3.919566 -11.395228 24.033701 -1.378306 7.816895 39.712643 0.000001 -0.000000 -0.000003 0.000002 -0.000000 -0.000001 0.000004 -0.000000 0.000000 0.000002 -0.000002 0.000001 0.000004 -0.000000 0.000000 0.000004 -0.000000 0.000000 0.000004 -0.000000 0.000000 0.000002 -0.000002 0.000001 0.000004 -0.000000 0.000000 0.000004 -0.000000 0.000000 0.000004 -0.000000 0.000000 0.000002 -0.000002 0.000001 0.000000 -0.000000 -0.000000 0.000000 -0.000000 -0.000000 0.000000 -0.000000 -0.000000 
